<?xml version="1.0" encoding="UTF-8" standalone="no"?>
<svg
   xmlns:dc="http://purl.org/dc/elements/1.1/"
   xmlns:cc="http://creativecommons.org/ns#"
   xmlns:rdf="http://www.w3.org/1999/02/22-rdf-syntax-ns#"
   xmlns:svg="http://www.w3.org/2000/svg"
   xmlns="http://www.w3.org/2000/svg"
   width="52.915833mm"
   height="117.77994mm"
   viewBox="0 0 187.49704 417.33049"
   id="svg4161"
   version="1.1">
  <defs
     id="defs4163" />
  <metadata
     id="metadata4166">
    <rdf:RDF>
      <cc:Work
         rdf:about="">
        <dc:format>image/svg+xml</dc:format>
        <dc:type
           rdf:resource="http://purl.org/dc/dcmitype/StillImage" />
        <dc:title></dc:title>
      </cc:Work>
    </rdf:RDF>
  </metadata>
  <path
     id="path4180"
     d="m 95.1937,415.83778 -5.17169,-1.4927 -0.3003,-7.9416 c -0.71406,-18.8826 -2.1908,-29.2863 -5.48725,-38.6578 -0.54588,-1.5519 -0.48847,-2.0146 0.8215,-6.6212 2.79926,-9.8437 4.92295,-21.0805 6.34223,-33.5583 0.64114,-5.6365 1.06451,-7.72074 1.06451,-5.2404 0,2.1995 2.54249,16.0289 4.01602,21.8443 1.88362,7.4338 3.74661,11.438 6.73724,14.4807 1.25153,1.2733 2.62998,2.5036 3.06322,2.7341 0.74524,0.3965 0.71906,0.555 -0.48596,2.9426 -2.77589,5.5003 -3.59,11.1342 -4.35857,30.1633 -0.25903,6.4131 -0.60556,14.1756 -0.7701,17.25 l -0.29915,5.5897 -5.1717,-1.4927 z M 73.4266,357.15958 C 66.09068,350.73328 54.56129,339.16928 48.34315,332.00098 35.34358,317.01493 25.14784,301.76482 18.9979,288.1083 9.67951,267.41593 4.06999,245.64046 0.54755,216.48632 -0.27201,209.70307 -0.15213,192.19568 0.77716,182.95326 3.9557,151.34058 9.84945,124.54951 18.44418,102.6448 20.84762,96.51932 27.36821,82.99774 30.91361,76.78727 34.9972,69.63403 41.88856,59.51847 47.20131,52.87919 54.19661,44.13721 58.14929,39.80207 76.33928,20.92174 87.37982,9.46218 89.65434,6.58858 90.95346,2.45836 L 91.72668,0 92.86454,3.37226 c 1.51668,4.4949 4.35934,9.85452 7.40632,13.96397 1.37059,1.84851 6.57381,7.53731 11.56267,12.64179 21.7278,22.23128 37.53327,44.29091 50.84068,70.95809 13.39225,26.8372 20.94142,52.46739 24.28324,82.44433 0.3503,3.14178 0.5447,10.68651 0.5395,20.93146 -0.01,17.32151 -0.4116,22.10454 -2.98883,35.50383 -8.20791,42.67406 -32.7591,85.20995 -67.19452,116.41725 -4.42636,4.0114 -5.20095,4.5161 -5.20095,3.3887 0,-0.3346 -0.58374,-1.0555 -1.2972,-1.6019 -4.84969,-3.7147 -5.91664,-5.1563 -7.70248,-10.4068 -1.89694,-5.5772 -5.52001,-23.6228 -5.52578,-27.52249 -0.004,-1.38629 -1.35558,-3.60934 -2.75645,-4.52723 -1.35624,-0.88864 -4.23794,-0.88614 -5.59776,0.005 -1.72864,1.13264 -2.30238,2.93136 -2.9659,9.29832 -0.81859,7.8547 -1.76042,14.4141 -2.83895,19.7717 -1.05922,5.2618 -3.71867,15.9842 -4.16019,16.7732 -0.23764,0.4246 -1.80767,-0.7182 -5.84134,-4.2517 z M 72.58157,319.8621 c 0.7285,-6.67073 1.14555,-8.48115 2.62899,-11.41267 l 1.01958,-2.01486 0,-129.12121 0,-129.12122 -2.66983,2.95438 C 51.73824,75.29435 38.12682,100.73563 30.1244,132.3333 c -5.39027,21.28359 -9.52233,50.71775 -9.53489,67.92046 -0.009,12.87998 3.32146,34.74252 7.80982,51.26072 6.83126,25.14063 16.40789,43.55484 32.90702,63.27452 5.14675,6.15134 10.38973,11.84738 10.51408,11.42248 0.0594,-0.2029 0.40193,-3.0601 0.76114,-6.34938 z"
     style="fill:#aaaaaa;fill-opacity:1" />
</svg>
